<?xml version="1.0" encoding="utf-8"?>
<!-- Generator: Adobe Illustrator 27.0.1, SVG Export Plug-In . SVG Version: 6.00 Build 0)  -->
<svg version="1.1" id="Ebene_1" xmlns="http://www.w3.org/2000/svg" xmlns:xlink="http://www.w3.org/1999/xlink" x="0px" y="0px"
	 viewBox="0 0 283.5 283.5" style="enable-background:new 0 0 283.5 283.5;" xml:space="preserve">
<style type="text/css">
	.st0{fill:#FFFFFF;}
</style>
<g>
	<g>
		<g>
			<path class="st0" d="M237.1,154.3L69.9,56.1C53.6,46.6,29,28.8,24.4,0.1L13.2,19.7c-35.1,61.8,8.5,95,33.2,109.4l167.1,98.2
				c16.3,9.6,40.9,27.3,45.5,56.1l11.2-19.7C305.4,201.9,261.7,168.8,237.1,154.3z"/>
		</g>
		<g>
			<path class="st0" d="M0.1,173.6v39c0,39,31.9,70.8,70.8,70.8h89.8L40.1,212.5C27.3,205,9.4,192.5,0.1,173.6z"/>
		</g>
		<g>
			<path class="st0" d="M212.6,0.1h-89.8L243.4,71c12.8,7.5,30.6,20,40,38.9v-39C283.4,31.9,251.5,0.1,212.6,0.1z"/>
		</g>
	</g>
</g>
</svg>
