<?xml version="1.0" encoding="utf-8"?>
<!-- Generator: Adobe Illustrator 27.0.1, SVG Export Plug-In . SVG Version: 6.00 Build 0)  -->
<svg version="1.1" id="Ebene_1" xmlns="http://www.w3.org/2000/svg" xmlns:xlink="http://www.w3.org/1999/xlink" x="0px" y="0px"
	 viewBox="0 0 283.5 419.5" style="enable-background:new 0 0 283.5 419.5;" xml:space="preserve">
<style type="text/css">
	.st0{fill:#FFFFFF;}
</style>
<g>
	<path class="st0" d="M36.5,388.9c-1.5-1.5-3.4-2.7-5.6-3.8c-2.1-1-4.6-2-7.3-3c-1.5-0.5-2.9-1.1-4.2-1.7c-1.2-0.6-2.3-1.2-3.3-1.9
		c-0.9-0.7-1.6-1.4-2-2.2c-0.5-0.8-0.7-1.8-0.7-2.9c0-1.9,0.7-3.3,2.1-4.3c1.4-1.1,3.5-1.6,6.2-1.6c2.3,0,4.6,0.3,6.7,0.8
		c2.2,0.5,4.2,1.3,6,2.3c0.2,0.1,0.4,0.1,0.6,0c0.2-0.1,0.3-0.2,0.4-0.4l3.2-8.4c0.1-0.3,0-0.7-0.3-0.8c-1.6-1-3.9-1.9-6.7-2.7
		c-2.8-0.8-6.1-1.2-9.7-1.2c-6.3,0-11.4,1.5-15.1,4.6s-5.6,7.4-5.6,12.7c0,2.6,0.5,4.8,1.4,6.7c0.9,1.8,2.1,3.4,3.6,4.8
		c1.5,1.3,3.2,2.4,5.1,3.3s3.8,1.7,5.8,2.4c1.9,0.7,3.7,1.3,5.2,2s2.8,1.4,3.8,2.2c1,0.7,1.8,1.6,2.3,2.5s0.8,2,0.8,3.2
		c0,2.1-0.7,3.7-2.3,4.8c-1.6,1.2-4.2,1.8-7.8,1.8c-3.5,0-6.5-0.4-9-1.2c-2.5-0.8-4.5-1.6-5.9-2.4c-0.2-0.1-0.4-0.1-0.6,0
		c-0.2,0.1-0.3,0.2-0.4,0.4L0,413.1c-0.1,0.3,0,0.7,0.3,0.8c0.7,0.4,1.6,0.9,2.7,1.3c1.1,0.5,2.5,0.9,4,1.4c1.5,0.4,3.3,0.8,5.3,1.1
		c2,0.3,4.2,0.5,6.6,0.5c7.2,0,12.7-1.5,16.5-4.4c3.8-3,5.8-7.2,5.8-12.6c0-2.8-0.4-5.2-1.2-7.2C39.2,392.1,38.1,390.4,36.5,388.9z"
		/>
	<path class="st0" d="M84.4,409.8c-1.5-2.2-3.1-4.4-4.8-6.7c-1.7-2.2-3.5-4.3-5.3-6.3c-1.6-1.7-3.2-3.3-4.7-4.6
		c2.9-3,5.8-6.1,8.7-9.2c3.1-3.3,6-6.6,8.7-9.6c0.2-0.2,0.2-0.5,0.1-0.7s-0.4-0.4-0.6-0.4H74.7c-0.2,0-0.4,0.1-0.5,0.2
		c-0.9,1-1.9,2.3-3.2,3.7c-1.2,1.4-2.5,2.9-3.9,4.4s-2.8,3-4.2,4.5c-1,1.1-2,2.1-2.9,3V352c0-0.2-0.1-0.4-0.2-0.5
		c-0.2-0.1-0.4-0.2-0.6-0.2l-10,1.7c-0.3,0.1-0.6,0.3-0.6,0.7v62.6c0,0.4,0.3,0.7,0.7,0.7h10c0.4,0,0.7-0.3,0.7-0.7v-18.5
		c1.1,0.9,2.2,1.9,3.4,3.1c1.5,1.6,3,3.2,4.5,5c1.5,1.7,2.9,3.6,4.1,5.4c1.3,1.9,2.4,3.7,3.4,5.3c0.1,0.2,0.4,0.3,0.6,0.3h11.6
		c0.2,0,0.5-0.1,0.6-0.3c0.1-0.2,0.1-0.5,0-0.7C87.2,414.1,85.9,412,84.4,409.8z"/>
	<path class="st0" d="M126.6,377.7c-1.9-2-4.2-3.6-6.8-4.8c-2.6-1.1-5.6-1.7-8.7-1.7s-6,0.6-8.6,1.7s-4.9,2.7-6.8,4.8
		c-1.9,2-3.4,4.5-4.4,7.4c-1,2.8-1.6,6.1-1.6,9.5c0,3.5,0.5,6.7,1.6,9.6c1,2.9,2.5,5.4,4.4,7.4s4.2,3.7,6.8,4.8
		c2.6,1.1,5.5,1.7,8.7,1.7s6.1-0.6,8.8-1.7c2.6-1.1,4.9-2.8,6.8-4.8c1.9-2,3.3-4.6,4.4-7.4c1-2.9,1.5-6.1,1.5-9.6s-0.5-6.7-1.6-9.5
		C129.9,382.3,128.4,379.8,126.6,377.7z M120.9,394.7c0,4.2-0.9,7.5-2.6,9.9s-4.1,3.5-7.2,3.5s-5.5-1.2-7.2-3.5
		c-1.8-2.4-2.6-5.7-2.6-9.9c0-4.1,0.9-7.4,2.6-9.8c1.7-2.3,4.1-3.5,7.2-3.5s5.5,1.1,7.2,3.5C120,387.2,120.9,390.5,120.9,394.7z"/>
	<path class="st0" d="M188.4,358.3H178c-0.4,0-0.7,0.3-0.7,0.7v22.2h-23.5V359c0-0.4-0.3-0.7-0.7-0.7h-10.4c-0.4,0-0.7,0.3-0.7,0.7
		v57.3c0,0.4,0.3,0.7,0.7,0.7h10.4c0.4,0,0.7-0.3,0.7-0.7v-24.7h23.5v24.7c0,0.4,0.3,0.7,0.7,0.7h10.4c0.4,0,0.7-0.3,0.7-0.7V359
		C189.1,358.6,188.8,358.3,188.4,358.3z"/>
	<path class="st0" d="M234.1,372.4h-10c-0.4,0-0.7,0.3-0.7,0.7v34.4c-0.6,0.1-1.4,0.2-2.4,0.3c-1.3,0.1-2.6,0.2-3.8,0.2
		c-3.2,0-5.3-0.9-6.5-2.7c-1.3-1.9-1.9-5.1-1.9-9.5v-22.7c0-0.4-0.3-0.7-0.7-0.7h-10c-0.4,0-0.7,0.3-0.7,0.7v24.2
		c0,3,0.3,5.7,0.9,8.2c0.6,2.5,1.7,4.8,3.2,6.6c1.5,1.8,3.5,3.3,5.9,4.3s5.4,1.5,9,1.5c3.7,0,7.2-0.3,10.3-0.8s5.6-1,7.6-1.5
		c0.3-0.1,0.5-0.4,0.5-0.7v-42C234.7,372.7,234.4,372.4,234.1,372.4z"/>
	<path class="st0" d="M282,385.3c-0.9-2.9-2.2-5.3-3.8-7.4c-1.7-2.1-3.8-3.7-6.3-4.8c-2.5-1.1-5.3-1.7-8.4-1.7c-2.1,0-4,0.3-5.8,0.8
		c-1.3,0.4-2.4,0.8-3.4,1.2v-21.3c0-0.2-0.1-0.4-0.2-0.5c-0.2-0.1-0.4-0.2-0.6-0.2l-10,1.7c-0.3,0.1-0.6,0.3-0.6,0.7V415
		c0,0.3,0.2,0.6,0.5,0.7c2,0.6,4.6,1.2,7.6,1.7s6.3,0.8,9.6,0.8c3.5,0,6.7-0.5,9.4-1.6c2.8-1.1,5.2-2.7,7.2-4.7s3.5-4.5,4.5-7.4
		c1-2.8,1.6-6.1,1.6-9.6C283.3,391.3,282.9,388.1,282,385.3z M271.7,394.6c0,4.2-1,7.6-3,9.9c-2,2.4-4.6,3.5-8.2,3.5
		c-1.6,0-2.9-0.1-4-0.2c-0.8-0.1-1.6-0.2-2.2-0.3v-24c0.8-0.5,1.8-1,3-1.4c1.4-0.5,2.9-0.7,4.5-0.7c3.4,0,5.9,1.1,7.4,3.4
		C270.9,387.2,271.7,390.5,271.7,394.6z"/>
</g>
<g>
	<g>
		<g>
			<path class="st0" d="M237.1,155.5L70,57.3C53.7,47.8,29.1,30,24.4,1.3L13.3,20.9c-35.1,61.8,8.5,95,33.2,109.4l167.1,98.2
				c16.3,9.6,40.9,27.3,45.5,56.1l11.2-19.7C305.4,203.1,261.8,170,237.1,155.5z"/>
		</g>
		<g>
			<path class="st0" d="M0.1,174.8v39c0,39,31.9,70.8,70.8,70.8h89.8L40.1,213.7C27.3,206.2,9.5,193.7,0.1,174.8z"/>
		</g>
		<g>
			<path class="st0" d="M212.6,1.3h-89.8l120.7,70.9c12.8,7.5,30.6,20,40,38.9v-39C283.5,33.1,251.6,1.3,212.6,1.3z"/>
		</g>
	</g>
</g>
</svg>
