<?xml version="1.0" encoding="utf-8"?>
<!-- Generator: Adobe Illustrator 27.0.1, SVG Export Plug-In . SVG Version: 6.00 Build 0)  -->
<svg version="1.1" id="Ebene_1" xmlns="http://www.w3.org/2000/svg" xmlns:xlink="http://www.w3.org/1999/xlink" x="0px" y="0px"
	 viewBox="0 0 283.5 283.5" style="enable-background:new 0 0 283.5 283.5;" xml:space="preserve">
<style type="text/css">
	.st0{fill:url(#SVGID_1_);}
	.st1{fill:#FFFFFF;}
</style>
<g>
	<linearGradient id="SVGID_1_" gradientUnits="userSpaceOnUse" x1="41.5124" y1="241.9521" x2="241.9521" y2="41.5124">
		<stop  offset="0" style="stop-color:#28C8AF"/>
		<stop  offset="1" style="stop-color:#0F554B"/>
	</linearGradient>
	<circle class="st0" cx="141.7" cy="141.7" r="141.7"/>
	<g>
		<g>
			<g>
				<path class="st1" d="M158.8,82.9l-29.9-17.6c-2.9-1.7-7.3-4.9-8.2-10l-2,3.5c-6.3,11.1,1.5,17,5.9,19.6L154.6,96
					c2.9,1.7,7.3,4.9,8.2,10l2-3.5C171.1,91.4,163.2,85.5,158.8,82.9z"/>
			</g>
			<g>
				<path class="st1" d="M116.3,86.3v7c0,7,5.7,12.7,12.7,12.7h16.1l-21.6-12.7C121.2,92,118,89.7,116.3,86.3z"/>
			</g>
			<g>
				<path class="st1" d="M154.4,55.3h-16.1L160,68c2.3,1.3,5.5,3.6,7.2,7v-7C167.1,61,161.4,55.3,154.4,55.3z"/>
			</g>
		</g>
	</g>
	<g>
		<path class="st1" d="M73.7,147.2c-1-1-2.2-1.7-3.6-2.5c-1.4-0.6-3-1.3-4.7-1.9c-1-0.3-1.9-0.7-2.7-1.1c-0.8-0.4-1.5-0.8-2.1-1.2
			c-0.6-0.5-1-0.9-1.3-1.4c-0.3-0.5-0.5-1.2-0.5-1.9c0-1.2,0.5-2.1,1.4-2.8c0.9-0.7,2.3-1,4-1c1.5,0,3,0.2,4.3,0.5
			c1.4,0.3,2.7,0.8,3.9,1.5c0.1,0.1,0.3,0.1,0.4,0c0.1-0.1,0.2-0.1,0.3-0.3l2.1-5.4c0.1-0.2,0-0.5-0.2-0.5c-1-0.6-2.5-1.2-4.3-1.7
			c-1.8-0.5-3.9-0.8-6.3-0.8c-4.1,0-7.4,1-9.8,3c-2.4,2-3.6,4.8-3.6,8.2c0,1.7,0.3,3.1,0.9,4.3c0.6,1.2,1.4,2.2,2.3,3.1
			c1,0.8,2.1,1.6,3.3,2.1c1.2,0.6,2.5,1.1,3.8,1.6c1.2,0.5,2.4,0.8,3.4,1.3c1,0.5,1.8,0.9,2.5,1.4c0.6,0.5,1.2,1,1.5,1.6
			c0.3,0.6,0.5,1.3,0.5,2.1c0,1.4-0.5,2.4-1.5,3.1c-1,0.8-2.7,1.2-5,1.2c-2.3,0-4.2-0.3-5.8-0.8c-1.6-0.5-2.9-1-3.8-1.6
			c-0.1-0.1-0.3-0.1-0.4,0c-0.1,0.1-0.2,0.1-0.3,0.3l-2.1,5.3c-0.1,0.2,0,0.5,0.2,0.5c0.5,0.3,1,0.6,1.7,0.8
			c0.7,0.3,1.6,0.6,2.6,0.9c1,0.3,2.1,0.5,3.4,0.7s2.7,0.3,4.3,0.3c4.7,0,8.2-1,10.7-2.8c2.5-1.9,3.8-4.7,3.8-8.2
			c0-1.8-0.3-3.4-0.8-4.7C75.4,149.3,74.7,148.2,73.7,147.2z"/>
		<path class="st1" d="M104.7,160.7c-1-1.4-2-2.8-3.1-4.3c-1.1-1.4-2.3-2.8-3.4-4.1c-1-1.1-2.1-2.1-3-3c1.9-1.9,3.8-3.9,5.6-6
			c2-2.1,3.9-4.3,5.6-6.2c0.1-0.1,0.1-0.3,0.1-0.5c-0.1-0.1-0.3-0.3-0.4-0.3h-7.6c-0.1,0-0.3,0.1-0.3,0.1c-0.6,0.6-1.2,1.5-2.1,2.4
			c-0.8,0.9-1.6,1.9-2.5,2.8s-1.8,1.9-2.7,2.9c-0.6,0.7-1.3,1.4-1.9,1.9v-23.4c0-0.1-0.1-0.3-0.1-0.3c-0.1-0.1-0.3-0.1-0.4-0.1
			l-6.5,1.1c-0.2,0.1-0.4,0.2-0.4,0.5v40.5c0,0.3,0.2,0.5,0.5,0.5h6.5c0.3,0,0.5-0.2,0.5-0.5v-12c0.7,0.6,1.4,1.2,2.2,2
			c1,1,1.9,2.1,2.9,3.2c1,1.1,1.9,2.3,2.7,3.5c0.8,1.2,1.6,2.4,2.2,3.4c0.1,0.1,0.3,0.2,0.4,0.2h7.5c0.1,0,0.3-0.1,0.4-0.2
			c0.1-0.1,0.1-0.3,0-0.5C106.5,163.5,105.7,162.1,104.7,160.7z"/>
		<path class="st1" d="M132,139.9c-1.2-1.3-2.7-2.3-4.4-3.1c-1.7-0.7-3.6-1.1-5.6-1.1c-2,0-3.9,0.4-5.6,1.1
			c-1.7,0.7-3.2,1.7-4.4,3.1c-1.2,1.3-2.2,2.9-2.8,4.8c-0.6,1.8-1,3.9-1,6.1c0,2.3,0.3,4.3,1,6.2c0.6,1.9,1.6,3.5,2.8,4.8
			c1.2,1.3,2.7,2.4,4.4,3.1c1.7,0.7,3.6,1.1,5.6,1.1s3.9-0.4,5.7-1.1c1.7-0.7,3.2-1.8,4.4-3.1c1.2-1.3,2.1-3,2.8-4.8
			c0.6-1.9,1-3.9,1-6.2c0-2.3-0.3-4.3-1-6.1C134.1,142.9,133.2,141.3,132,139.9z M128.3,150.9c0,2.7-0.6,4.9-1.7,6.4
			c-1.1,1.6-2.7,2.3-4.7,2.3s-3.6-0.8-4.7-2.3c-1.2-1.6-1.7-3.7-1.7-6.4c0-2.7,0.6-4.8,1.7-6.3c1.1-1.5,2.7-2.3,4.7-2.3
			s3.6,0.7,4.7,2.3C127.7,146.1,128.3,148.2,128.3,150.9z"/>
		<path class="st1" d="M172,127.4h-6.7c-0.3,0-0.5,0.2-0.5,0.5v14.4h-15.2v-14.4c0-0.3-0.2-0.5-0.5-0.5h-6.7c-0.3,0-0.5,0.2-0.5,0.5
			v37.1c0,0.3,0.2,0.5,0.5,0.5h6.7c0.3,0,0.5-0.2,0.5-0.5v-16h15.2v16c0,0.3,0.2,0.5,0.5,0.5h6.7c0.3,0,0.5-0.2,0.5-0.5v-37.1
			C172.5,127.6,172.3,127.4,172,127.4z"/>
		<path class="st1" d="M201.6,136.5h-6.5c-0.3,0-0.5,0.2-0.5,0.5v22.3c-0.4,0.1-0.9,0.1-1.6,0.2c-0.8,0.1-1.7,0.1-2.5,0.1
			c-2.1,0-3.4-0.6-4.2-1.7c-0.8-1.2-1.2-3.3-1.2-6.1V137c0-0.3-0.2-0.5-0.5-0.5h-6.5c-0.3,0-0.5,0.2-0.5,0.5v15.7
			c0,1.9,0.2,3.7,0.6,5.3s1.1,3.1,2.1,4.3c1,1.2,2.3,2.1,3.8,2.8c1.6,0.6,3.5,1,5.8,1c2.4,0,4.7-0.2,6.7-0.5c2-0.3,3.6-0.6,4.9-1
			c0.2-0.1,0.3-0.3,0.3-0.5v-27.2C202,136.7,201.8,136.5,201.6,136.5z"/>
		<path class="st1" d="M232.6,144.9c-0.6-1.9-1.4-3.4-2.5-4.8c-1.1-1.4-2.5-2.4-4.1-3.1s-3.4-1.1-5.4-1.1c-1.4,0-2.6,0.2-3.8,0.5
			c-0.8,0.3-1.6,0.5-2.2,0.8v-13.8c0-0.1-0.1-0.3-0.1-0.3c-0.1-0.1-0.3-0.1-0.4-0.1l-6.5,1.1c-0.2,0.1-0.4,0.2-0.4,0.5v39.6
			c0,0.2,0.1,0.4,0.3,0.5c1.3,0.4,3,0.8,4.9,1.1c1.9,0.3,4.1,0.5,6.2,0.5c2.3,0,4.3-0.3,6.1-1c1.8-0.7,3.4-1.7,4.7-3
			c1.3-1.3,2.3-2.9,2.9-4.8c0.6-1.8,1-3.9,1-6.2C233.4,148.7,233.2,146.7,232.6,144.9z M225.9,150.9c0,2.7-0.6,4.9-1.9,6.4
			c-1.3,1.6-3,2.3-5.3,2.3c-1,0-1.9-0.1-2.6-0.1c-0.5-0.1-1-0.1-1.4-0.2v-15.5c0.5-0.3,1.2-0.6,1.9-0.9c0.9-0.3,1.9-0.5,2.9-0.5
			c2.2,0,3.8,0.7,4.8,2.2C225.4,146.1,225.9,148.2,225.9,150.9z"/>
	</g>
</g>
</svg>
